<?xml version="1.0" standalone="no"?>
<!DOCTYPE svg PUBLIC "-//W3C//DTD SVG 20010904//EN"
 "http://www.w3.org/TR/2001/REC-SVG-20010904/DTD/svg10.dtd">
<svg version="1.0" xmlns="http://www.w3.org/2000/svg"
 width="430.000000pt" height="430.000000pt" viewBox="0 0 430.000000 430.000000"
 preserveAspectRatio="xMidYMid meet">
<metadata>
Created by potrace 1.11, written by Peter Selinger 2001-2013
</metadata>
<g transform="translate(0.000000,430.000000) scale(0.100000,-0.100000)"
fill="#000000" stroke="none">
<path d="M840 3059 c-234 -28 -426 -200 -480 -429 -8 -30 -14 -91 -14 -134 -1
-75 -2 -79 -24 -81 -43 -3 -62 -46 -34 -77 13 -15 33 -18 123 -18 97 0 109 -2
119 -19 5 -11 10 -24 10 -30 0 -17 -31 -41 -54 -41 -13 0 -31 -9 -41 -20 -15
-17 -16 -24 -7 -45 6 -14 15 -26 19 -26 5 -1 81 -2 171 -3 174 -2 182 -4 182
-53 0 -34 -25 -41 -143 -41 -69 0 -113 -5 -122 -12 -19 -16 -19 -54 0 -70 21
-17 848 -18 869 -1 23 19 25 49 5 67 -15 14 -43 16 -181 17 -90 0 -170 4 -179
8 -22 11 -30 44 -15 63 6 9 31 17 56 19 64 5 80 15 80 46 0 34 -17 51 -51 51
-15 0 -34 7 -43 15 -17 17 -13 54 6 67 7 4 124 8 261 8 234 0 248 1 267 20 24
24 24 30 6 55 -11 15 -27 19 -89 19 l-75 1 -1 78 c-3 257 -145 459 -381 542
-36 13 -60 17 -155 29 -11 1 -49 -1 -85 -5z"/>
<path d="M1268 2219 c-19 -11 -23 -45 -9 -68 13 -20 135 -22 161 -4 24 17 26
46 4 67 -18 18 -128 22 -156 5z"/>
<path d="M1524 2205 c-15 -22 -15 -27 -1 -48 13 -20 22 -23 83 -21 88 2 81 1
94 25 9 16 8 26 -5 45 -14 22 -22 24 -85 24 -63 0 -71 -2 -86 -25z"/>
<path d="M155 1861 c-49 -10 -92 -41 -117 -85 -32 -57 -38 -236 -9 -301 19
-43 67 -87 109 -100 38 -11 128 -7 163 8 78 33 107 97 107 238 0 133 -22 181
-102 225 -32 18 -105 25 -151 15z m91 -80 c18 -1 53 -36 62 -62 14 -36 8 -200
-8 -226 -44 -69 -169 -53 -189 25 -16 61 -8 193 13 225 18 26 65 47 96 41 8
-1 20 -3 26 -3z"/>
<path d="M1635 1851 c-2 -4 3 -40 10 -81 7 -41 15 -93 19 -115 3 -22 8 -51 11
-65 2 -14 7 -41 9 -60 3 -19 8 -57 11 -85 4 -27 13 -55 20 -61 13 -10 130 -13
139 -3 2 2 14 58 26 124 12 66 23 125 25 130 1 6 5 33 10 60 8 54 24 93 25 65
2 -20 6 -41 35 -195 14 -71 26 -140 28 -152 2 -12 6 -26 10 -30 11 -10 137
-11 143 -1 3 4 10 36 15 70 11 71 10 65 38 241 28 170 29 163 -18 165 -46 3
-47 1 -56 -58 -9 -64 -16 -110 -20 -129 -1 -9 -8 -58 -15 -109 -13 -96 -24
-107 -34 -37 -4 22 -16 87 -27 145 -11 58 -22 121 -25 140 -3 19 -8 38 -10 41
-2 3 -34 7 -72 7 l-69 1 -28 -147 c-15 -81 -29 -156 -31 -167 -14 -81 -23 -92
-30 -38 -2 15 -5 39 -7 53 -3 14 -8 52 -11 85 -4 33 -9 67 -11 75 -2 8 -7 35
-10 60 -10 78 -12 81 -56 78 -22 -1 -42 -4 -44 -7z"/>
<path d="M3307 1852 c-2 -4 -3 -113 -3 -242 l1 -234 39 -1 c21 -1 40 4 42 10
3 6 6 56 7 112 2 81 6 105 21 121 40 46 120 34 134 -20 4 -16 7 -73 6 -126
l-2 -97 44 0 c50 0 46 -14 45 152 0 96 -11 132 -50 167 -46 42 -138 36 -178
-12 l-22 -27 0 80 c1 132 4 123 -41 123 -22 0 -41 -2 -43 -6z"/>
<path d="M3074 1823 c-5 -2 -9 -26 -8 -53 2 -47 0 -50 -25 -51 -14 -1 -34 -1
-43 0 -15 2 -18 -6 -18 -37 l0 -40 43 2 42 1 1 -107 c0 -114 13 -157 46 -159
10 -1 39 -2 66 -3 l47 -1 3 37 c3 36 2 37 -35 40 l-38 3 -1 93 c0 60 3 92 10
93 6 0 27 2 46 2 33 2 35 4 35 37 0 37 3 35 -70 39 -18 1 -21 7 -20 47 0 25
-4 49 -10 52 -11 7 -56 10 -71 5z"/>
<path d="M612 1713 c-19 -9 -36 -22 -39 -30 -9 -22 -23 -15 -23 12 0 22 -4 25
-39 25 -48 0 -46 11 -45 -265 l0 -210 45 -3 44 -3 -1 91 c-1 49 1 90 3 90 2 0
16 -11 31 -25 26 -24 49 -30 102 -25 105 9 168 146 119 260 -34 80 -127 119
-197 83z m99 -92 c47 -48 37 -130 -20 -164 -56 -33 -126 6 -135 74 -12 98 88
156 155 90z"/>
<path d="M987 1723 c-39 -6 -103 -70 -115 -115 -23 -84 12 -180 78 -217 71
-40 200 -18 230 40 7 11 10 22 8 23 -59 39 -59 39 -83 16 -33 -31 -84 -36
-116 -11 -15 11 -29 30 -32 41 -6 23 -11 22 141 22 l102 0 0 38 c0 114 -90
183 -213 163z m101 -93 c40 -38 29 -48 -50 -48 -85 0 -92 3 -77 29 21 41 92
51 127 19z"/>
<path d="M1420 1719 c-19 -4 -45 -19 -57 -34 l-23 -26 0 30 c0 28 -2 29 -43
29 l-42 0 0 -170 0 -171 38 -2 c20 -2 40 1 43 7 3 5 7 56 8 113 1 91 4 107 22
125 41 42 118 31 131 -19 4 -14 7 -71 7 -126 l1 -100 40 0 40 0 3 120 c2 72
-2 130 -8 146 -26 61 -90 93 -160 78z"/>
<path d="M2375 1722 c-52 -18 -84 -44 -104 -85 -38 -79 -23 -169 37 -225 35
-33 69 -44 125 -43 55 2 91 17 125 54 l23 25 -35 21 -35 22 -20 -20 c-47 -47
-127 -32 -145 27 -9 26 -18 24 130 23 l112 0 -3 43 c-3 58 -31 112 -69 135
-34 22 -109 33 -141 23z m92 -87 c11 -8 23 -23 26 -34 4 -18 -1 -19 -74 -20
-44 0 -79 3 -79 8 0 4 9 20 21 35 24 30 71 35 106 11z"/>
<path d="M2737 1717 c-38 -12 -107 -61 -107 -76 0 -5 15 -18 32 -29 l32 -21
26 31 c20 24 33 30 67 31 47 1 73 -16 73 -47 0 -18 -6 -22 -37 -24 -57 -4
-112 -12 -138 -22 -84 -32 -87 -137 -4 -178 49 -24 133 -15 156 18 16 23 35
18 31 -8 -2 -13 5 -17 37 -17 l40 0 0 137 c0 132 -1 137 -25 163 -14 15 -32
31 -42 36 -28 15 -101 18 -141 6z m123 -208 c0 -50 -79 -86 -131 -59 -24 14
-24 32 1 55 11 10 20 16 20 12 0 -3 11 -2 25 1 14 4 39 8 55 9 24 2 30 -2 30
-18z"/>
<path d="M3805 1718 c-97 -33 -139 -155 -88 -257 19 -39 34 -55 73 -74 41 -20
55 -23 97 -16 26 4 53 8 59 8 13 1 74 58 74 69 0 4 -14 15 -32 25 -30 17 -31
17 -55 -5 -45 -42 -131 -23 -146 33 -6 22 -11 21 142 20 l104 -1 -6 56 c-6 63
-42 119 -85 135 -39 15 -102 18 -137 7z m115 -90 c36 -39 27 -47 -59 -46 -72
0 -78 2 -74 20 13 48 96 65 133 26z"/>
<path d="M4086 1711 c-2 -3 -3 -80 -2 -170 l1 -165 43 -1 42 -1 1 50 c0 28 0
74 -1 101 -2 91 14 112 92 117 36 2 37 3 36 40 0 35 -2 38 -30 38 -33 0 -67
-16 -85 -39 -11 -14 -12 -12 -13 10 0 24 -4 26 -40 26 -23 0 -42 -3 -44 -6z"/>
</g>
</svg>
